# xmcd CD database file
#
# Track frame offsets:
#	150
#	18542
#	36352
#	49107
#	65375
#	82657
#	96122
#	111565
#	129320
#	147892
#	167597
#	180387
#	197192
#	211617
#	231677
#	250617
#	268097
#	285777
#	306057
#	323484
#
# Disc length: 4548 seconds
#
# Revision: 1
# Processed by: cddbd v1.5.1PL2 Copyright (c) Steve Scherf et al.
# Submitted via: CDex 1.51
#
DISCID=0e11c214
DTITLE=Trisha Yearwood - Jasper County (China Ed.) CD2
DYEAR=1900
DGENRE=Country
TTITLE0=How do i live
TTITLE1=Song remebbers when
TTITLE2=The wrong side of Memphis
TTITLE3=In another eyes
TTITLE4=The women before me
TTITLE5=Perfect love
TTITLE6=Thinking about you
TTITLE7=Down on my knees
TTITLE8=She's in love with the boy
TTITLE9=Walkaway Joe
TTITLE10=XXX's and OOO's
TTITLE11=Like we never had a broken heart 
TTITLE12=Wherer are you
TTITLE13=One love
TTITLE14=Sad eyes
TTITLE15=Some days
TTITLE16=I did
TTITLE17=Try me again
TTITLE18=Too bad you're no good
TTITLE19=Real live woman
EXTD=
EXTT0=
EXTT1=
EXTT2=
EXTT3=
EXTT4=
EXTT5=
EXTT6=
EXTT7=
EXTT8=
EXTT9=
EXTT10=
EXTT11=
EXTT12=
EXTT13=
EXTT14=
EXTT15=
EXTT16=
EXTT17=
EXTT18=
EXTT19=
PLAYORDER=
